<svg width="198" height="193" viewBox="0 0 198 193" fill="none" xmlns="http://www.w3.org/2000/svg">
    <path d="M2.41721 4.22033C-0.273073 6.83095 -0.40429 11.5465 0.513234 14.7731L111.096 77.3757L86.2973 85.7006L110.631 93.7932L50.2696 153.243L42.1527 145.212L20.4095 193L72.423 174.824L65.0336 166.903L129.189 103.421L134.442 121.428L144.148 92.7942L168.09 85.8699L143.81 79.3942L134.121 46.0257L128.146 66.2011L13.0795 0.0780923C7.49969 -0.306402 5.22605 0.675558 2.41721 4.22033ZM146.796 27.1704C144.882 27.1787 142.979 27.2205 141.088 27.2966C139.705 27.3526 138.331 27.4304 136.965 27.5252L150.167 72.9983L194.122 84.7213C196.743 68.3835 197.883 51.1659 198 34.5293C183.023 30.0462 165.588 27.3029 148.712 27.1745C148.072 27.1695 147.433 27.1683 146.796 27.1704ZM131.22 28.0482C117.706 29.5751 105.445 33.1282 96.1512 38.862L123.396 54.4577L131.22 28.0482ZM193.818 86.5676L150.32 99.1466L133.875 147.658L125.313 118.303L108.808 134.634C116.756 149.416 128.282 160.67 145.212 167.072C165.266 159.618 178.402 140.824 186.617 116.243C189.711 106.988 192.069 96.9688 193.817 86.5676H193.818Z" fill="#242829"/>
    </svg>
    